<?xml version="1.0" encoding="iso-8859-1"?>
<!-- Generator: Adobe Illustrator 16.0.0, SVG Export Plug-In . SVG Version: 6.00 Build 0)  -->
<!DOCTYPE svg PUBLIC "-//W3C//DTD SVG 1.1//EN" "http://www.w3.org/Graphics/SVG/1.1/DTD/svg11.dtd">
<svg version="1.1" id="Capa_1" xmlns="http://www.w3.org/2000/svg" xmlns:xlink="http://www.w3.org/1999/xlink" x="0px" y="0px"
	 width="302.137px" height="302.137px" viewBox="0 0 302.137 302.137" style="enable-background:new 0 0 302.137 302.137;"
	 xml:space="preserve">
<g>
	<g>
		<g>
			<path d="M205.362,0.156c-4.623-0.658-9.313,0.798-12.838,3.855c-3.519,3.087-5.536,7.533-5.536,12.211v196.816
				c-11.313-4.828-24.944-7.608-39.953-7.608c-41.265,0-72.379,20.795-72.379,48.351c0,27.568,31.114,48.356,72.379,48.356
				c41.28,0,72.402-20.788,72.402-48.356V36.878c16.394,5.435,37.771,16.489,37.338,37.14c-0.192,8.956,6.924,16.36,15.877,16.546
				c0.12,0,0.234,0,0.349,0c8.803,0,16.021-7.041,16.2-15.876C290.234,24.838,236.99,4.386,205.362,0.156z"/>
		</g>
		<g>
			<path d="M138.175,92.825H27.341c-7.962,0-14.42-6.455-14.42-14.417c0-7.956,6.458-14.42,14.42-14.42h110.828
				c7.968,0,14.421,6.458,14.421,14.42C152.596,86.37,146.144,92.825,138.175,92.825z"/>
		</g>
		<g>
			<path d="M138.175,136.071H27.341c-7.962,0-14.42-6.464-14.42-14.42s6.458-14.417,14.42-14.417h110.828
				c7.968,0,14.421,6.461,14.421,14.417S146.144,136.071,138.175,136.071z"/>
		</g>
		<g>
			<path d="M138.175,179.32H27.341c-7.962,0-14.42-6.455-14.42-14.417s6.458-14.417,14.42-14.417h110.828
				c7.968,0,14.421,6.455,14.421,14.417C152.596,172.859,146.144,179.32,138.175,179.32z"/>
		</g>
	</g>
</g>
<g>
</g>
<g>
</g>
<g>
</g>
<g>
</g>
<g>
</g>
<g>
</g>
<g>
</g>
<g>
</g>
<g>
</g>
<g>
</g>
<g>
</g>
<g>
</g>
<g>
</g>
<g>
</g>
<g>
</g>
</svg>
