<svg width="26" height="26" viewBox="0 0 26 26" xmlns="http://www.w3.org/2000/svg">
    <g fill-rule="nonzero" fill="none">
        <path d="M8.776.711c-3.158 1.08-5.848 3.443-7.347 6.434a12.837 12.837 0 0 0-1.13 3.262 13.011 13.011 0 0 0 1.123 8.385 13.083 13.083 0 0 0 3.52 4.33 12.919 12.919 0 0 0 4.712 2.376c2.161.579 4.461.565 6.636.07 1.966-.453 3.827-1.394 5.312-2.76 1.568-1.443 2.69-3.34 3.283-5.382.648-2.223.732-4.6.327-6.887H13.014V15.6h7.068a6.107 6.107 0 0 1-2.593 4.008c-.857.579-1.84.948-2.858 1.13-1.018.174-2.077.194-3.095-.008a7.676 7.676 0 0 1-2.886-1.247 8.017 8.017 0 0 1-2.969-3.98 7.868 7.868 0 0 1 0-5.047 8.098 8.098 0 0 1 1.882-3.06 7.69 7.69 0 0 1 3.876-2.154 7.736 7.736 0 0 1 3.806.153A6.98 6.98 0 0 1 18.04 7.04l2.384-2.384c.418-.425.857-.836 1.261-1.275A12.643 12.643 0 0 0 17.51.795C14.722-.237 11.585-.258 8.776.71z" fill="#FFF"/>
        <path d="M8.776.711a13.13 13.13 0 0 1 8.734.077 12.6 12.6 0 0 1 4.175 2.586c-.404.439-.843.85-1.261 1.275L18.04 7.033a7.062 7.062 0 0 0-2.795-1.645 7.655 7.655 0 0 0-3.806-.153 7.748 7.748 0 0 0-3.876 2.154 8.045 8.045 0 0 0-1.882 3.06c-1.415-1.102-2.83-2.196-4.252-3.297C2.928 4.154 5.619 1.792 8.776.71z" fill="#EA4335"/>
        <path d="M.307 10.4c.23-1.13.606-2.23 1.129-3.262 1.415 1.101 2.83 2.196 4.252 3.297a7.821 7.821 0 0 0 0 5.047c-1.415 1.1-2.83 2.202-4.245 3.297C.133 16.22-.265 13.216.307 10.4z" fill="#FBBC05"/>
        <path d="M13.014 10.532h12.198c.405 2.28.314 4.657-.327 6.887-.593 2.043-1.715 3.939-3.283 5.382l-4.12-3.2a6.107 6.107 0 0 0 2.593-4.008h-7.068c.007-1.687.007-3.374.007-5.06z" fill="#4285F4"/>
        <path d="M1.429 18.786c1.415-1.095 2.83-2.196 4.245-3.298a8.058 8.058 0 0 0 2.97 3.98 7.724 7.724 0 0 0 2.885 1.248c1.018.21 2.07.182 3.095.007 1.018-.18 2-.55 2.858-1.129l4.12 3.2c-1.485 1.373-3.346 2.307-5.312 2.76-2.175.495-4.475.509-6.636-.07a12.811 12.811 0 0 1-4.712-2.377 13.053 13.053 0 0 1-3.513-4.321z" fill="#34A853"/>
    </g>
</svg>
