<svg width="99" height="120" viewBox="0 0 99 120" xmlns="http://www.w3.org/2000/svg">
    <g fill="none" fill-rule="evenodd">
        <path d="M57.361 106.68c-19.948 4.344-39.709-8.351-44.052-28.298-4.342-19.947 8.352-39.709 28.3-44.051a2.918 2.918 0 0 1 1.24 5.7c-16.803 3.658-27.497 20.306-23.84 37.11 3.66 16.803 20.306 27.498 37.11 23.839 16.805-3.659 27.5-20.306 23.84-37.11a2.917 2.917 0 0 1 5.7-1.24c4.344 19.946-8.352 39.708-28.298 44.05" fill="#1C0A41"/>
        <path d="M60.002 118.812c-26.636 5.8-53.025-11.153-58.824-37.79-5.8-26.635 11.153-53.024 37.79-58.823a2.916 2.916 0 1 1 1.24 5.7C16.715 33.016 1.764 56.29 6.878 79.783c5.115 23.493 28.389 38.445 51.883 33.33 23.493-5.116 38.445-28.39 33.33-51.882a2.918 2.918 0 0 1 5.7-1.242c5.8 26.637-11.154 53.025-37.79 58.824" fill="#1C0A41"/>
        <path d="M64.763 74.694c-2.414 0-4.39-1.785-4.39-3.967V4.277c0-2.183 1.976-3.968 4.39-3.968 2.414 0 4.39 1.785 4.39 3.967v66.451c0 2.182-1.976 3.967-4.39 3.967" fill="#1C0A41"/>
        <path d="M86.762 25.267a4.402 4.402 0 0 1-6.204.208L61.76 7.9a4.402 4.402 0 0 1-.208-6.205 4.401 4.401 0 0 1 6.203-.208l18.798 17.576a4.402 4.402 0 0 1 .209 6.204" fill="#1C0A41"/>
        <path d="M87.732 20.93v-.001.002m0-.004a4.358 4.358 0 0 0-1.179-1.864L68.463 2.149c0-.002-.002-.003-.003-.005l18.095 16.919a4.353 4.353 0 0 1 1.177 1.864" fill="#E4E4DF"/>
        <path d="M60.375 7.556v-2.76c.011.452.09.903.239 1.334l-.039.12-.003.01a4.5 4.5 0 0 0-.095.366l-.02.093c-.018.1-.033.201-.046.302l-.016.154a4.507 4.507 0 0 0-.014.26l-.006.12m8.089-5.406-.709-.662a4.592 4.592 0 0 0 .002 0l.703.657.004.005" fill="#5C4488"/>
        <path d="M87.702 23.696a4.34 4.34 0 0 0-1.147-1.776L67.757 4.344a4.385 4.385 0 0 0-.893-.64l-.023-.011a4.596 4.596 0 0 0-.338-.164l-.072-.03c-.1-.041-.2-.078-.303-.111l-.13-.041a3.772 3.772 0 0 0-.262-.067 4.043 4.043 0 0 0-.847-.107l-.124-.007-.071.004c-.086.001-.17.007-.256.013-.057.004-.114.008-.171.014a4.56 4.56 0 0 0-.302.046l-.107.02a4.333 4.333 0 0 0-3.244 2.868 4.436 4.436 0 0 1-.24-1.336V4.7l.007-.122c.003-.086.006-.173.014-.26l.016-.153c.013-.101.028-.202.047-.302l.019-.093a4.5 4.5 0 0 1 .095-.367l.003-.01A4.332 4.332 0 0 1 63.858.405l.107-.019c.1-.018.201-.035.302-.046.057-.007.114-.01.171-.014.086-.006.17-.012.256-.014l.07-.003.125.006c.079.003.158.006.236.012a5.19 5.19 0 0 1 .611.095c.088.02.176.043.262.068l.13.04c.102.034.202.07.303.111l.072.03c.114.05.227.105.338.165l.023.011c.233.128.458.276.671.447.075.062.149.126.22.193l.709.662 18.09 16.914a4.358 4.358 0 0 1 1.178 1.866v.002a4.44 4.44 0 0 1-.03 2.765M69.153 70.506c0 9.953-8.07 18.022-18.023 18.022-9.954 0-18.023-8.069-18.023-18.022 0-9.954 8.07-18.023 18.023-18.023 9.954 0 18.023 8.069 18.023 18.023" fill="#1C0A41"/>
        <path d="M64.884 70.506c0 7.596-6.158 13.754-13.754 13.754-7.597 0-13.754-6.158-13.754-13.754 0-7.596 6.157-13.754 13.754-13.754 7.596 0 13.754 6.158 13.754 13.754" fill="#FFFFFE"/>
        <path d="M50.993 88.528c-9.955 0-18.024-8.069-18.024-18.022 0-9.954 8.07-18.023 18.024-18.023-9.891.075-17.886 8.115-17.886 18.023 0 9.907 7.995 17.948 17.886 18.022" fill="#D6D5D0"/>
    </g>
</svg>
